<?xml version="1.0" encoding="UTF-8" standalone="no"?>
<svg
   xmlns:dc="http://purl.org/dc/elements/1.1/"
   xmlns:cc="http://creativecommons.org/ns#"
   xmlns:rdf="http://www.w3.org/1999/02/22-rdf-syntax-ns#"
   xmlns:svg="http://www.w3.org/2000/svg"
   xmlns="http://www.w3.org/2000/svg"
   id="svg4710"
   version="1.1"
   viewBox="0 0 963.66364 334.60635"
   data-version="1"
   data-id="lg_FLVDwH5jc5fkuNmkzo"
   height="334.60635"
   width="963.66364"
   xml:space="preserve"><metadata
     id="metadata4716"><rdf:RDF><cc:Work
         rdf:about=""><dc:format>image/svg+xml</dc:format><dc:type
           rdf:resource="http://purl.org/dc/dcmitype/StillImage" /><dc:title></dc:title></cc:Work></rdf:RDF></metadata><defs
     id="defs4714" /><g
     transform="matrix(1.71898,0,0,1.71898,-837.23952,-1163.3971)"
     id="g4704"><rect
       width="378.00101"
       height="194.65401"
       x="178.157"
       y="277.04501"
       rx="0"
       ry="0"
       transform="translate(491.5,399.75)"
       id="rect4698"
       style="fill:none" /><path
       d="m 695.288,759.672 16.93,-52.08 h 9.01 l -19.01,55.74 h -13.76 l -19,-55.74 h 8.91 z m 71.98,3.66 h -39.6 v -55.74 h 38.61 v 7.13 h -30.49 v 16.93 h 23.76 v 6.83 h -23.76 v 18.12 h 31.48 z m 21.68,-53.96 h 8.22 v 53.96 h -8.22 z m 25.34,5.35 h -42.57 v -7.13 h 42.57 z m -130.47,130.6 h -8.22 v -54.95 h 8.22 z m 29.21,0.79 h -37.43 v -7.13 h 37.43 z m 13.15,0 h -8.71 l 18.71,-55.74 h 13.56 l 19.11,55.74 h -8.81 l -16.93,-52.27 z m 31.09,-16.63 h -28.41 l 0.29,-6.53 h 27.72 z m 40.79,16.63 h -21.88 v -55.74 h 21.08 q 2.68,0 5.65,0.25 2.97,0.25 5.79,1.04 2.82,0.79 5.1,2.43 2.27,1.63 3.61,4.3 1.34,2.68 1.34,6.74 0,3.16 -1.24,5.89 -1.24,2.72 -4.45,4.4 -3.22,1.68 -9.36,1.88 v 0.4 q 7.03,0.1 10.84,1.98 3.81,1.88 5.3,4.9 1.48,3.02 1.48,6.68 0,4.16 -1.48,6.88 -1.49,2.72 -3.96,4.31 -2.48,1.58 -5.55,2.37 -3.07,0.8 -6.28,1.04 -3.22,0.25 -5.99,0.25 m -13.76,-25.54 v 18.81 h 13.06 q 4.26,0 7.73,-0.54 3.46,-0.55 5.59,-2.53 2.13,-1.98 2.13,-6.04 0,-4.35 -2.23,-6.38 -2.23,-2.03 -5.89,-2.68 -3.66,-0.64 -8.12,-0.64 z m 0,-23.36 v 16.92 h 11.97 q 4.06,0 7.28,-0.49 3.22,-0.5 5.1,-2.23 1.88,-1.73 1.88,-5.49 0,-4.16 -1.98,-5.99 -1.98,-1.83 -5.2,-2.28 -3.21,-0.44 -6.98,-0.44 z m 77.72,48.11 h -8.22 v -54.95 h 8.22 z m 29.21,0.79 h -37.43 v -7.13 h 37.43 z m 24.14,-1.78 h -8.12 v -52.17 h 8.12 z m 7.53,1.78 h -23.27 v -7.13 h 23.27 z m 0,-48.61 h -23.27 v -7.13 h 23.27 z m 51.18,44.95 v -52.08 h 8.41 v 55.74 h -15.54 l -23.46,-52.07 h -0.2 v 52.07 h -8.42 v -55.74 h 14.56 l 24.45,52.08 z m 66.82,-50.99 -38.11,36.44 v -9.41 l 27.42,-28.12 h 10.69 z m -37.72,54.65 h -8.21 v -55.74 h 8.21 z m 38.91,0 h -9.5 l -22.18,-29.2 5.94,-5.84 25.74,33.95 z M 537.254,787.001 c 2.477,9.807 12.415,15.767 22.233,13.335 9.38,-2.825 14.889,-12.522 12.51,-22.027 -2.377,-9.504 -11.801,-15.466 -21.408,-13.541 -9.815,2.467 -15.78,12.413 -13.335,22.233 m 24.93,-16.346 a 13.826,13.826 0 0 1 4.75,19.044 13.781,13.781 0 0 1 -25.354,-3.79 13.893,13.893 0 0 1 20.605,-15.254 m -39.694,3.211 a 8.92,8.92 0 0 0 6.645,0.981 8.786,8.786 0 1 0 -6.645,-0.98 m 3.479,-11.73 a 4.326,4.326 0 0 1 5.24,3.121 4.326,4.326 0 0 1 -8.384,2.119 4.326,4.326 0 0 1 3.122,-5.24 m 17.929,-3.323 a 8.809,8.809 0 0 0 -0.022,-17.617 8.8085,8.8085 0 0 0 0,17.617 m -3.702,-11.017 a 4.304,4.304 0 0 1 5.91,-1.471 4.326,4.326 0 1 1 -5.933,1.471 m 25.779,11.017 a 8.8085,8.8085 0 1 0 0,-17.617 8.8085,8.8085 0 0 0 0,17.617 m -3.702,-11.017 a 4.3266113,4.3266113 0 1 1 7.61,4.119 4.3266113,4.3266113 0 0 1 -7.61,-4.119 m 12.042,20.405 a 8.697,8.697 0 0 0 10.66,6.4 8.786,8.786 0 1 0 -10.66,-6.378 m 4.817,-4.348 a 4.24,4.24 0 0 1 3.702,-2.096 4.326,4.326 0 1 1 -3.702,2.096"
       id="path4700"
       style="fill:#3a3a3a" /><path
       d="m 494.772,684.577 a 7.716,7.716 0 0 0 -7.716,7.693 v 163.013 c 0,4.238 3.457,7.694 7.716,7.694 h 120.242 c 4.237,0 7.716,-3.457 7.716,-7.694 V 692.27 c 0,-4.237 -3.457,-7.693 -7.716,-7.693 z m 33.495,31.22 h 53.252 c 5.798,0 10.548,-4.728 10.548,-10.548 v -2.832 h 10.169 V 840.722 H 507.55 V 702.417 h 10.169 v 2.832 c 0,5.798 4.727,10.548 10.548,10.548 m 59.34,-10.548 c 0,3.345 -2.72,6.088 -6.088,6.088 h -53.251 a 6.11,6.11 0 0 1 -6.088,-6.088 v -2.832 h 65.428 z m -65.428,-7.292 v -8.92 h 65.428 v 8.92 z m 96.09,-5.687 v 163.013 c 0,1.784 -1.471,3.234 -3.255,3.234 H 494.772 c -1.784,0 -3.256,-1.45 -3.256,-3.234 V 692.27 c 0,-1.784 1.472,-3.233 3.256,-3.233 h 22.947 v 8.92 h -12.4 a 2.23,2.23 0 0 0 -2.23,2.23 v 142.765 a 2.23,2.23 0 0 0 2.23,2.23 h 99.147 a 2.23,2.23 0 0 0 2.23,-2.23 V 700.187 a 2.23,2.23 0 0 0 -2.23,-2.23 h -12.4 v -8.92 h 22.97 a 3.236,3.236 0 0 1 3.234,3.233"
       id="path4702"
       style="fill:#3a3a3a" /></g></svg>