<?xml version="1.0" encoding="UTF-8" standalone="no"?>
<svg
   xmlns:dc="http://purl.org/dc/elements/1.1/"
   xmlns:cc="http://creativecommons.org/ns#"
   xmlns:rdf="http://www.w3.org/1999/02/22-rdf-syntax-ns#"
   xmlns:svg="http://www.w3.org/2000/svg"
   xmlns="http://www.w3.org/2000/svg"
   id="svg5306"
   version="1.1"
   viewBox="0 0 233.2209 306.66601"
   data-version="1"
   data-id="lg_FLVDwH5jc5fkuNmkzo"
   height="306.66602"
   width="233.2209"
   xml:space="preserve"><metadata
     id="metadata5312"><rdf:RDF><cc:Work
         rdf:about=""><dc:format>image/svg+xml</dc:format><dc:type
           rdf:resource="http://purl.org/dc/dcmitype/StillImage" /><dc:title></dc:title></cc:Work></rdf:RDF></metadata><defs
     id="defs5310" /><path
     style="fill:#c5c5c5;stroke-width:1.71897995"
     id="path5296"
     d="m 86.289358,176.06481 c 4.257913,16.85804 21.341142,27.10316 38.218082,22.9226 16.12404,-4.85612 25.5939,-21.52507 21.50444,-37.86398 -4.08601,-16.33718 -20.28568,-26.58574 -36.79992,-23.2767 -16.871792,4.24072 -27.125508,21.3377 -22.922602,38.21808 m 42.854172,-28.09845 c 11.33841,6.75264 15.0042,21.44975 8.16516,32.73626 -4.86975,8.41777 -14.38943,13.00424 -24.00745,11.5665 -9.61801,-1.43773 -17.380326,-8.60757 -19.575575,-18.08144 -5.06848,-20.58838 17.207865,-37.07968 35.419585,-26.22132 m -68.233194,5.51965 c 3.442366,2.02899 7.540804,2.63404 11.422622,1.68632 6.989937,-1.75362 11.767214,-8.20167 11.409001,-15.39837 -0.358208,-7.19662 -5.752018,-13.13603 -12.881239,-14.18745 -7.129221,-1.05141 -14.007983,3.07806 -16.428457,9.86487 -2.420506,6.78691 0.291962,14.33953 6.478073,18.03635 m 5.980332,-20.16364 c 3.966856,-0.99238 7.99069,1.40427 9.007455,5.36494 0.859735,3.92191 -1.549021,7.81809 -5.441647,8.80193 -3.892625,0.98383 -7.863338,-1.29999 -8.970282,-5.15941 -0.992268,-3.96738 1.405284,-7.99146 5.366656,-9.00746 m 30.819592,-5.71217 c 8.299878,-0.0982 14.973668,-6.85991 14.963298,-15.16035 -0.0104,-8.30044 -6.70102,-15.045431 -15.001118,-15.122921 -8.3625,0 -15.141628,6.779141 -15.141628,15.141631 0,8.3625 6.779128,15.14164 15.141628,15.14164 m -6.363664,-18.938 c 2.105588,-3.50571 6.655923,-4.63829 10.159182,-2.52862 5.68025,3.41655 4.38957,11.99486 -2.043434,13.58982 -6.432996,1.59497 -11.581572,-5.38682 -8.155285,-11.0612 m 44.313589,18.938 c 8.3625,0 15.14163,-6.77914 15.14163,-15.14164 0,-8.36249 -6.77913,-15.141631 -15.14163,-15.141631 -8.3625,0 -15.14163,6.779141 -15.14163,15.141631 0,8.3625 6.77913,15.14164 15.14163,15.14164 m -6.36366,-18.938 c 1.95502,-3.61275 6.46871,-4.95641 10.08128,-3.00106 3.61256,1.95534 4.95583,6.46914 3.00016,10.08154 -1.95542,3.61194 -6.46853,4.95499 -10.08064,2.99989 -3.61211,-1.9551 -4.95557,-6.46808 -3.0008,-10.08037 m 20.69996,35.07578 c 1.94203,8.15708 10.21182,13.12206 18.32432,11.00148 13.05285,-3.27716 15.62348,-20.69911 4.07619,-27.60799 -11.5473,-6.90889 -25.68385,3.59303 -22.40051,16.64433 m 8.28032,-7.47412 c 1.32165,-2.25526 3.74982,-3.63004 6.36367,-3.60299 7.64816,-0.009 10.32323,10.14024 3.67164,13.90624 -6.65158,3.766 -13.97783,-3.74955 -10.03531,-10.30325" /><path
     style="fill:#c5c5c5;stroke-width:1.71897995"
     id="path5298"
     d="M 13.26365,0 A 13.26365,13.26365 0 0 0 0,13.224114 V 293.4402 c 0,7.28504 5.9425138,13.22583 13.26365,13.22583 h 206.6936 c 7.28331,0 13.26365,-5.94251 13.26365,-13.22583 V 13.224114 C 233.2209,5.940795 227.27838,0 219.95725,0 Z m 57.577235,53.666556 h 91.539125 c 9.96665,0 18.1318,-8.127337 18.1318,-18.131801 v -4.868151 h 17.48031 V 268.41013 H 35.228776 V 30.666604 h 17.480308 v 4.868151 c 0,9.966646 8.125618,18.131801 18.131801,18.131801 M 172.84516,35.534755 c 0,5.749988 -4.67562,10.46515 -10.46515,10.46515 H 70.842604 A 10.502968,10.502968 0 0 1 60.377453,35.534755 V 30.666604 H 172.84688 Z M 60.375734,22.999953 V 7.666651 H 172.84516 V 22.999953 Z M 225.55253,13.224114 V 293.4402 c 0,3.06666 -2.52862,5.55918 -5.59528,5.55918 H 13.26365 c -3.066661,0 -5.5969992,-2.49252 -5.5969992,-5.55918 V 13.224114 c 0,-3.066661 2.5303382,-5.557463 5.5969992,-5.557463 H 52.709084 V 22.999953 H 31.393732 a 3.8333254,3.8333254 0 0 0 -3.833326,3.833325 V 272.24346 a 3.8333254,3.8333254 0 0 0 3.833326,3.83332 H 201.82544 a 3.8333254,3.8333254 0 0 0 3.83333,-3.83332 V 26.833278 a 3.8333254,3.8333254 0 0 0 -3.83333,-3.833325 H 180.51009 V 7.666651 h 39.48497 a 5.5626193,5.5626193 0 0 1 5.55918,5.557463" /></svg>