<svg xmlns="http://www.w3.org/2000/svg" xml:space="preserve" width="1500" height="195" data-id="lg_FLVDwH5jc5fkuNmkzo" data-version="1" viewBox="0 0 1500 195"><g data-padding="20"><g transform="translate(10 3.476)scale(.96435)"><rect width="378.001" height="194.654" x="178.157" y="-399.577" fill="none" rx="0" ry="0" transform="translate(491.5 399.75)"/><path fill="#3a3a3a" d="m695.288 83.05 16.93-52.08h9.01l-19.01 55.74h-13.76l-19-55.74h8.91Zm71.98 3.66h-39.6V30.97h38.61v7.13h-30.49v16.93h23.76v6.83h-23.76v18.12h31.48Zm21.68-53.96h8.22v53.96h-8.22Zm25.34 5.35h-42.57v-7.13h42.57Zm-130.47 130.6h-8.22v-54.95h8.22Zm29.21.79h-37.43v-7.13h37.43Zm13.15 0h-8.71l18.71-55.74h13.56l19.11 55.74h-8.81l-16.93-52.27Zm31.09-16.63h-28.41l.29-6.53h27.72Zm40.79 16.63h-21.88v-55.74h21.08q2.68 0 5.65.25t5.79 1.04 5.1 2.43q2.27 1.63 3.61 4.3 1.34 2.68 1.34 6.74 0 3.16-1.24 5.89-1.24 2.72-4.45 4.4-3.22 1.68-9.36 1.88v.4q7.03.1 10.84 1.98t5.3 4.9q1.48 3.02 1.48 6.68 0 4.16-1.48 6.88-1.49 2.72-3.96 4.31-2.48 1.58-5.55 2.37-3.07.8-6.28 1.04-3.22.25-5.99.25m-13.76-25.54v18.81h13.06q4.26 0 7.73-.54 3.46-.55 5.59-2.53t2.13-6.04q0-4.35-2.23-6.38t-5.89-2.68q-3.66-.64-8.12-.64Zm0-23.36v16.92h11.97q4.06 0 7.28-.49 3.22-.5 5.1-2.23t1.88-5.49q0-4.16-1.98-5.99t-5.2-2.28q-3.21-.44-6.98-.44Zm77.72 48.11h-8.22v-54.95h8.22Zm29.21.79h-37.43v-7.13h37.43Zm24.14-1.78h-8.12v-52.17h8.12Zm7.53 1.78h-23.27v-7.13h23.27Zm0-48.61h-23.27v-7.13h23.27Zm51.18 44.95v-52.08h8.41v55.74h-15.54l-23.46-52.07h-.2v52.07h-8.42v-55.74h14.56l24.45 52.08Zm66.82-50.99-38.11 36.44v-9.41l27.42-28.12h10.69Zm-37.72 54.65h-8.21v-55.74h8.21Zm38.91 0h-9.5l-22.18-29.2 5.94-5.84 25.74 33.95Zm-504.834-59.111c2.477 9.807 12.415 15.767 22.233 13.335 9.38-2.825 14.889-12.522 12.51-22.027-2.377-9.504-11.801-15.466-21.408-13.541-9.815 2.467-15.78 12.413-13.335 22.233m24.93-16.346a13.826 13.826 0 0 1 4.75 19.044 13.781 13.781 0 0 1-25.354-3.79 13.893 13.893 0 0 1 20.605-15.254m-39.694 3.211a8.92 8.92 0 0 0 6.645.981 8.786 8.786 0 1 0-6.645-.98m3.479-11.73a4.326 4.326 0 0 1 5.24 3.121 4.326 4.326 0 0 1-8.384 2.119 4.326 4.326 0 0 1 3.122-5.24m17.929-3.323a8.809 8.809 0 0 0-.022-17.617 8.808 8.808 0 0 0 0 17.617m-3.702-11.017a4.304 4.304 0 0 1 5.91-1.471 4.326 4.326 0 1 1-5.933 1.471m25.779 11.017a8.808 8.808 0 1 0 0-17.617 8.808 8.808 0 0 0 0 17.617m-3.702-11.017a4.326 4.326 0 1 1 7.61 4.119 4.326 4.326 0 0 1-7.61-4.119m12.042 20.405a8.697 8.697 0 0 0 10.66 6.4 8.786 8.786 0 1 0-10.66-6.378m4.817-4.348a4.24 4.24 0 0 1 3.702-2.096 4.326 4.326 0 1 1-3.702 2.096"/><path fill="#3a3a3a" d="M494.772 7.955a7.716 7.716 0 0 0-7.716 7.693v163.013c0 4.238 3.457 7.694 7.716 7.694h120.242c4.237 0 7.716-3.457 7.716-7.694V15.648c0-4.237-3.457-7.693-7.716-7.693Zm33.495 31.22h53.252c5.798 0 10.548-4.728 10.548-10.548v-2.832h10.169V164.1H507.55V25.795h10.169v2.832c0 5.798 4.727 10.548 10.548 10.548m59.34-10.548c0 3.345-2.72 6.088-6.088 6.088h-53.251a6.11 6.11 0 0 1-6.088-6.088v-2.832h65.428Zm-65.428-7.292v-8.92h65.428v8.92Zm96.09-5.687v163.013c0 1.784-1.471 3.234-3.255 3.234H494.772c-1.784 0-3.256-1.45-3.256-3.234V15.648c0-1.784 1.472-3.233 3.256-3.233h22.947v8.92h-12.4a2.23 2.23 0 0 0-2.23 2.23V166.33a2.23 2.23 0 0 0 2.23 2.23h99.147a2.23 2.23 0 0 0 2.23-2.23V23.565a2.23 2.23 0 0 0-2.23-2.23h-12.4v-8.92h22.97a3.236 3.236 0 0 1 3.234 3.233"/></g><path fill="transparent" stroke="transparent" d="M469.5 0h561v195h-561z"/></g></svg>